<svg xmlns="http://www.w3.org/2000/svg" width="377.59659" height="462.4783"><path d="M301.89264 274.18294s35.35533 0 55.86143-28.99138c20.5061-28.99137 18.03122-98.99495 10.25305-115.96551-7.77818-16.97056-38.53732-14.14213-38.53732-14.14213l-30.05204 8.83883-21.56676 86.62058z" fill="#f1f0eb"/><path d="M162.35503 449.03487l-136.00001-1s-13-24.5-17-57-5-57-1.5-84c0 0 15.20523-73.91046 24.5-92.5 3.5-7 28 8 128.00001 7 100-1 125.5-10 125.5-10 .003-.10485 32.29795 55.97586 32 122.5-.083 18.52682-3.16822 112.66541-25 113l-130.5 2" fill="#f2f2f2"/><path d="M47.86937 448.11539c68.85476 0 70.59792-.91044 70.59792-.91044" fill="none" stroke="#f1f0eb" stroke-width="28.72293" stroke-linecap="round"/><path d="M46.95747 443.61656c70.72035 0 72.51075-.74218 72.51075-.74218" fill="#f7f7f7" stroke="#f7f7f7" stroke-width="26.28248" stroke-linecap="round"/><path d="M71.85091 453.37463s-6.44169-7.26574-6.01192-10.87024c.42971-3.60451.81815-5.36956 2.15836-6.96053 1.3402-1.59096 4.26391 6.14609 4.22863 8.60964-.0353 2.4635-.37507 9.22113-.37507 9.22113zM90.10724 453.53395s-6.44168-7.26574-6.01192-10.87024c.42971-3.60451.81816-5.36956 2.15837-6.96053 1.34019-1.59095 4.26391 6.1461 4.22863 8.60964-.0354 2.4635-.37508 9.22113-.37508 9.22113zM110.49271 453.14931s-6.44169-7.26573-6.01192-10.87024c.42971-3.60451.81815-5.36955 2.15836-6.96052 1.3402-1.59096 4.26391 6.14609 4.22863 8.60963-.0353 2.4635-.37507 9.22113-.37507 9.22113zM54.49138 453.62001s-6.44169-7.26574-6.01193-10.87024c.42972-3.60452.81816-5.36956 2.15837-6.96053 1.3402-1.59096 4.26391 6.14609 4.22863 8.60963-.0354 2.4635-.37507 9.22114-.37507 9.22114z" fill="#e08245"/><path d="M274.70295 447.54604c-68.85476 0-70.59792-.91044-70.59792-.91044" fill="none" stroke="#f1f0eb" stroke-width="28.72293" stroke-linecap="round"/><path d="M275.61485 443.04721c-70.72035 0-72.51075-.74218-72.51075-.74218" fill="#f7f7f7" stroke="#f7f7f7" stroke-width="26.28248" stroke-linecap="round"/><path d="M250.72141 452.80528s6.44169-7.26574 6.01192-10.87024c-.42971-3.60451-.81815-5.36956-2.15836-6.96053-1.3402-1.59096-4.26391 6.14609-4.22863 8.60964.0353 2.4635.37507 9.22113.37507 9.22113zM232.46508 452.9646s6.44168-7.26574 6.01192-10.87024c-.42971-3.60451-.81816-5.36956-2.15837-6.96053-1.34019-1.59095-4.26391 6.1461-4.22863 8.60964.0354 2.4635.37508 9.22113.37508 9.22113zM212.07961 452.57996s6.44169-7.26573 6.01192-10.87024c-.42971-3.60451-.81815-5.36955-2.15836-6.96052-1.3402-1.59096-4.26391 6.14609-4.22863 8.60963.0353 2.4635.37507 9.22113.37507 9.22113zM268.08094 453.05066s6.44169-7.26574 6.01193-10.87024c-.42972-3.60452-.81816-5.36956-2.15837-6.96053-1.3402-1.59096-4.26391 6.14609-4.22863 8.60963.0354 2.4635.37507 9.22114.37507 9.22114z" fill="#e08245"/><path d="M315.68122 376.8902c-29.69848-6.36396-30.37556-15.06443-36.29713-25.32088-5.92156-10.25644-12.60919-15.42146-6.81928-25.44989 5.78992-10.02842 39.05055-16.05082 39.05055-16.05082s9.72271 36.416 4.06586 66.82159zM11.78616 407.2848s19.63813-2.64066 21.22912-12.00982c1.59099-9.36917 2.12132-9.54594-7.6014-18.56155-9.72271-9.01562-19.62221-22.62742-19.62221-22.62742s3.85725 40.9902 5.99449 53.19879z" fill="#bbb"/><g><path d="M292.264 189.47925a134.5 117.5 0 01-54.32594 124.15354 134.5 117.5 0 01-152.14485.44622 134.5 117.5 0 01-55.27894-123.83208l130.97898 26.70944z" fill="#b0ddb4" fill-rule="evenodd"/><path d="M26.06135 171.24432l-1.25417 49.90527s64.49461 33.52986 147.14552 33.90526c83.87481.38096 127.84555-37.71473 127.84555-37.71473l-.7625-46.8577s-16.5274 44.41887-127.33722 39.50057c-111.57892-4.95245-116.66225-15.11934-145.63718-38.73867z" fill="#e6665f" stroke="#e6665f" stroke-width="1.24468" stroke-linecap="round" stroke-linejoin="round"/><path d="M132.66658 259.54528a35.9047 35.9047 0 0144.58609-23.07791 35.9047 35.9047 0 0124.07138 44.05767 35.9047 35.9047 0 01-43.50712 25.05275 35.9047 35.9047 0 01-26.02154-42.93471" fill="#ffd696" fill-rule="evenodd"/><path d="M155.64197 274.75806a11.75 11.75 0 0114.66621-7.32938 11.75 11.75 0 017.71494 14.46711 11.75 11.75 0 01-14.25787 8.0951 11.75 11.75 0 01-8.46959-14.03865" fill="#a65e00" fill-rule="evenodd"/><g fill="none" stroke-linecap="round"><path d="M132.66159 268.47005h65.24914" stroke="#d5ae6f" stroke-width="14.85463"/><path d="M129.48314 272.16503h73.10604" stroke="#d5ae6f" stroke-width="15.72357"/><path d="M128.0822 269.86731h75.74366" stroke="#ffd696" stroke-width="12.90835"/></g><path d="M31.03616 346.7848s-25.25-20.75-30-50 27.75-68.25 27.75-68.25 5.5 38.25 30 58.75 55.25 34 57.25 35 2.25 12.5 2.25 12.5-3.75 18.5-15 26.25-16.25 11-29.25 12.25-43-26.5-43-26.5z" fill="#f1f0eb"/><path d="M2.28616 275.0348s-3.25 6.75-2 23 39 51 48.25 56.25 33.5 20.5 45.5 15.5 23.5-26.5 24.25-35-1-10.5-1.25-11.75-82.75-30-88.25-94.5c0 0-23.75 32.25-26.5 46.5z" fill="#f7f7f7"/><g fill="#e08245"><path d="M87.14434 364.09368s-9.6905-.61652-11.92543-3.47698c-2.23498-2.86042-3.20307-4.38658-3.37311-6.45983-.1701-2.07326 7.3563 1.35658 9.06718 3.12947 1.71073 1.77297 6.23136 6.80734 6.23136 6.80734zM95.93007 353.8743s-9.69049-.61653-11.92542-3.47698c-2.2349-2.86049-3.20306-4.38657-3.37311-6.45985-.1701-2.07324 7.3563 1.35657 9.06715 3.1295 1.71077 1.77295 6.23138 6.80733 6.23138 6.80733zM102.96931 343.40316s-9.69055-.61653-11.92544-3.477c-2.23501-2.86041-3.20307-4.38658-3.3731-6.45983-.1701-2.0733 7.35626 1.35657 9.06713 3.12948 1.71075 1.77299 6.23141 6.80735 6.23141 6.80735zM111.75066 333.67938s-9.6905-.6165-11.92543-3.47697c-2.23492-2.86049-3.20305-4.38655-3.3731-6.45985-.1701-2.07325 7.35628 1.35659 9.06714 3.12953 1.71077 1.77292 6.23139 6.80729 6.23139 6.80729z"/></g></g><g><path d="M169.28359 45.67386s-41.01219-1.06066-62.2254 4.59619c-21.2132 5.65687-32.17336 7.07109-48.08326 21.21322-12.35489 10.98212-28.99138 42.77996-32.52691 53.38656-3.53553 10.6066-7.77817 25.8094-8.48528 38.18377-.70711 12.37437 6.36396 31.1127 16.61701 37.47666 10.25305 6.36396 33.94112 14.14213 44.90128 15.55635 10.96015 1.41421 43.91347 8.79594 92.57768 9.58883 46.91422-3.2071 62.5529-7.16966 74.29952-9.23528 16.91727-2.97487 38.53732-13.78858 49.14392-22.62742 8.81365-7.3447 12.37437-20.15254 12.72793-33.23402.35355-13.08147-4.5962-30.40559-10.25306-45.96194-5.65685-15.55635-22.62741-36.76954-34.29467-47.02259-11.66727-10.25305-39.59799-19.79901-94.39876-21.92033z" fill="silver"/></g><g><path d="M32.85471 94.00765S44.53243 2.92153 66.48651.11889c21.9541-2.80264 61.6583 44.84238 62.1254 48.11215.46712 3.26976-58.85564 5.6053-95.7572 45.77661z" fill="silver"/><path d="M44.1392 85.85834s8.39564-65.48606 24.17946-67.50101c15.78382-2.01495 44.32902 32.23928 44.66485 34.59007.33583 2.35078-42.31407 4.02991-68.84432 32.91094z" fill="#e1cfcc"/><path d="M52.9982 79.36956s6.25-48.75001 18-50.25001 33 24.00001 33.25 25.75001-31.5 3-51.25 24.5z" fill="#f66"/><g><path d="M293.66613 94.28863S281.98841 3.2025 260.03433.39987c-21.95409-2.80264-61.6583 44.84238-62.1254 48.11215-.46712 3.26976 58.85564 5.6053 95.7572 45.7766z" fill="silver"/><path d="M282.38165 86.13932S273.986 20.65326 258.20218 18.6383c-15.78382-2.01495-44.32902 32.23928-44.66485 34.59007-.33583 2.35078 42.31407 4.0299 68.84432 32.91094z" fill="#e1cfcc"/><path d="M273.52265 79.65054s-6.25-48.75001-18-50.25001-33 24-33.25 25.75 31.5 3 51.25 24.5z" fill="#f66"/></g></g><g><path d="M162.33524 34.64531s-37.51219-1.06066-58.7254 4.5962c-21.2132 5.65685-30.67336 9.07107-46.58326 23.2132-12.35489 10.98212-30.49138 40.77996-34.02691 51.38656-3.53553 10.6066-7.77817 25.8094-8.48528 38.18377-.70711 12.37437 6.36396 31.1127 16.61701 37.47666 10.25305 6.36396 33.94112 14.14214 44.90128 15.55635 10.96015 1.41421 41.70579 8.31208 94.53479 8.71751 52.16422-3.7071 62.61069-7.039 74.46373-8.36396 17.66727-1.97487 33.58757-8.83884 44.90128-18.38478 8.76856-7.39847 15.9099-19.44543 16.26346-32.5269.35355-13.08148-3.01041-27.35535-8.66727-42.9117-5.65685-15.55635-13.83088-28.03477-29.79467-44.02259-9.22915-9.24304-15.62865-17.06779-33.94595-25.34694-15.93145-7.20078-44.05242-6.51272-71.45281-7.57338z" fill="#f7f7f7"/><path d="M41.03616 80.5348s10 18.25 35.25 14 35.5-15.25 43.75-20.25 17.03427-38.97487 17.03427-38.97487-68.81676-2.83884-96.03427 45.22487zM176.02762 35.18085c9.8995 42.07285-3.81801 63.49317 9.61702 74.45332 13.43503 10.96016 37.04516 16.32967 51.51219 20.67767 13.30705 3.99937 22.3094-15.93503 30.79468-23.00609 8.48528-7.07107 24.74874-16.97057 24.74874-16.97057S277.87003 30.6778 176.02762 35.18085z" fill="#bbb"/></g><g><path d="M77.20946 107.30574s.97227-7.51301 4.41941-13.08147c3.44715-5.56847 8.3969-9.28079 12.90471-10.78339 4.5078-1.5026 13.25825-1.59098 19.18026-.0884 5.92202 1.5026 8.83884 4.86136 10.16467 6.01041 1.32582 1.14904 5.12652 6.62912 6.62912 15.1144M245.93595 106.81599s-.97227-7.51301-4.41941-13.08147c-3.44715-5.56847-8.3969-9.28079-12.90471-10.78339-4.5078-1.5026-13.25825-1.59098-19.18026-.0884-5.92202 1.5026-8.83884 4.86136-10.16467 6.01041-1.32582 1.14904-5.12652 6.62912-6.62912 15.1144" fill="none" stroke="#000" stroke-width="4.3" stroke-linecap="round"/><path d="M134.78616 127.6598s4.625 7.125 10.125 6.875 10.25-3 11.875-5.375 5.5-8.25 5.25-9.625-1.25 4.625 4.875 10 10.375 4.625 13 4.75 9.5-6 9.375-7.375" fill="none" stroke="#f66" stroke-width="2.5" stroke-linecap="round"/><path d="M161.78616 117.4098l-7.75-9.25h14.75z" fill="#f66" stroke="#f66" stroke-width="5" stroke-linejoin="round"/><g fill="none" stroke="#979797" stroke-width="2" stroke-linecap="round"><path d="M62.18344 125.16019l-21.21321-9.72272M57.41047 141.95397l-24.92552 4.77297M60.76922 154.6819c-19.09188 15.55635-19.62221 15.02602-19.62221 15.02602"/></g><g fill="none" stroke="#979797" stroke-width="2" stroke-linecap="round"><path d="M261.1864 125.1242l21.21321-9.72272M265.95937 141.91798l24.92552 4.77297M262.60062 154.64591c19.09188 15.55635 19.62221 15.02602 19.62221 15.02602"/></g></g><g><path d="M297.46197 71.70666l21.44668 245.13678" fill="none" stroke="#a65e00" stroke-width="9.08234"/><g transform="scale(2.51332 -2.51332) rotate(5 1712.3275 1230.80924)" clip-path="url(#a)"><g fill="#ffd983"><path d="M1.443 22.342c1.03.715 2.03 1.58 2.285 2.54.254.959 3.185 2.313 3.679 1.97.494-.342 1.075-.013 1.371.744.296.757 3.476 2.541 4.244 2.093.768-.447 2.095-.028 2.558.458.464.486 3.891.542 4.29-.19.4-.732 1.061-.596 1.858-.268.796.329 3.266.29 3.586-.391.321-.681 1.161-1.12 1.772-.941.611.179 2.967-.435 2.721-1.324-.245-.889.318-1.531 1.146-1.486.828.044 2.3-1.661 2.156-2.085-.145-.425.418-.945.987-1.197.568-.252.71-2.529-.864-3.111-1.573-.583-26.976-2.846-28.953-.634-1.978 2.212-2.836 3.822-2.836 3.822"/><path d="M20.89 23.164c-.48-4.459-3.09-7.96-4.838-7.752-1.749.208-2.777 3.991-2.297 8.45.48 4.457 1.589 7.388 3.909 7.388 2.552 0 3.706-3.629 3.226-8.086"/><path d="M25.97 22.807c-.48-4.459-3.09-7.96-4.838-7.752-1.749.208-2.777 3.991-2.297 8.45.48 4.457 1.824 5.906 4.036 6.642 2.872.954 3.579-2.883 3.099-7.34"/><path d="M28.213 20.173c-1.624-4.15-4.101-7.009-5.535-6.388-1.433.621-.905 4.346.342 8.636 1.671 5.745 4.58 6.607 6.014 5.986 1.433-.621.802-4.086-.821-8.234"/><path d="M29.335 17.695c-2.794-3.391-6.008-5.273-7.179-4.203-1.171 1.068.142 4.682 2.936 8.072 2.793 3.391 6.042 4.558 7.434 3.838 1.924-.996-.397-4.318-3.191-7.707"/><path d="M29.232 15.151c-4.118-1.167-7.832-.649-8.294 1.159-.462 1.807 2.499 4.219 6.617 5.386 4.118 1.168 7.544 1.327 8.294-1.159.538-1.783-2.5-4.219-6.617-5.386M16.922 23.957c-1.384 4.245-3.912 6.918-6.156 6.013-2.435-.982-2.902-4.692-1.519-8.936 1.382-4.244 5.062-6.961 6.529-6.432 1.466.529 2.529 5.112 1.146 9.355"/><path d="M11.697 22.354c-2.715 3.461-5.176 6.257-7.081 4.385-1.889-1.857-1.068-5.909 1.647-9.369 2.713-3.461 6.988-4.2 8.184-3.161 1.195 1.038-.035 4.685-2.75 8.145"/><path d="M8.414 21.172C2.088 24.119.708 22.219.157 20.694c-.552-1.524 2.299-5.036 6.284-6.633 3.984-1.6 7.663-1.659 8.216-.134.551 1.523-2.344 5.428-6.243 7.245"/><path d="M35.65 11.964c0-5.312-7.752-7.214-17.315-7.214C8.772 4.75.299 7.854.299 13.166c0 5.313 8.473 14.429 18.036 14.429S35.65 17.276 35.65 11.964"/></g><path d="M19.537 19.369c0-2.989-.538-5.411-1.202-5.411-.664 0-1.203 2.422-1.203 5.411 0 2.988.539 5.41 1.203 5.41s1.202-2.422 1.202-5.41M24.221 19.599c.513-2.533.446-4.683-.148-4.803-.595-.121-1.492 1.834-2.005 4.367-.513 2.533-.447 4.683.147 4.804.596.12 1.492-1.835 2.006-4.368M28.074 19.376c.945-1.944 1.269-3.734.724-4-.546-.265-1.754 1.095-2.7 3.04-.945 1.943-1.269 3.734-.724 3.999.546.266 1.754-1.095 2.7-3.039M14.581 19.489c-.645-2.701-1.63-4.78-2.201-4.644-.571.137-.511 2.436.134 5.138.645 2.701 1.739 4.304 2.31 4.167.571-.136.402-1.96-.243-4.661M10.258 19.115c-.868-1.94-2.018-3.312-2.573-3.064-.554.248-.3 2.02.567 3.961.867 1.939 2.086 2.914 2.64 2.667.554-.248.233-1.624-.634-3.564" fill="#ffac33"/><path d="M12.865 28.681c.514-.603.618-1.387.233-1.751-.386-.364-1.115-.169-1.629.434-.515.603-.619 1.387-.233 1.751.386.364 1.115.169 1.629-.434M6.473 25.219c.263-.762.082-1.53-.405-1.716-.487-.186-1.094.28-1.358 1.042-.263.761-.082 1.53.405 1.716.487.186 1.095-.281 1.358-1.042M2.981 20.315c.663-.572.935-1.378.607-1.799-.329-.421-1.133-.299-1.796.273-.664.573-.935 1.378-.607 1.799.329.422 1.133.299 1.796-.273M18.672 29.529c.514-.603.618-1.387.233-1.751-.386-.364-1.115-.169-1.629.434-.515.603-.619 1.387-.233 1.751.386.364 1.115.169 1.629-.434M25.028 28.099c.057-.92-.396-1.7-1.011-1.742-.616-.043-1.162.669-1.219 1.588-.058.92.395 1.7 1.011 1.742.616.043 1.162-.668 1.219-1.588M29.092 26.074c.147-.795-.147-1.524-.655-1.628-.508-.104-1.04.457-1.186 1.252-.147.796.146 1.525.655 1.628.508.104 1.039-.457 1.186-1.252M32.26 22.638c-.333-.684-.976-1.038-1.437-.79-.461.248-.566 1.004-.233 1.688.333.685.976 1.038 1.437.79.461-.248.566-1.004.233-1.688M34.544 18.828c-.414-.532-1.118-.646-1.572-.255-.453.392-.485 1.14-.07 1.672.414.532 1.118.646 1.571.254.454-.391.486-1.139.071-1.671" fill="#ffcc4d"/></g><path d="M369.59583 68.09698l-21.44668 245.13678" fill="none" stroke="#a65e00" stroke-width="9.08234"/><path d="M299.41776 123.92275a39.73445 21.8122 0 0148.38791-15.60524 39.73445 21.8122 0 0128.55215 26.52219 39.73445 21.8122 0 01-48.2407 15.742 39.73445 21.8122 0 01-28.80089-26.441" fill="#f7f7f7" fill-rule="evenodd"/><path d="M348.44726 139.22392s6.8742-7.75357 6.41558-11.60009c-.45857-3.84653-.87309-5.73008-2.30328-7.42787-1.43019-1.69778-4.5502 6.55875-4.51255 9.1877.03777 2.6289.40025 9.84026.40025 9.84026zM331.37299 138.69035s6.8742-7.75357 6.41558-11.60009c-.45857-3.84653-.8731-5.73008-2.30329-7.42787-1.43018-1.69778-4.5502 6.55875-4.51255 9.1877.03778 2.6289.40026 9.84026.40026 9.84026zM363.92082 140.29107s6.8742-7.75358 6.41559-11.6001c-.45858-3.84653-.8731-5.73008-2.3033-7.42787-1.43018-1.69778-4.55019 6.55875-4.51254 9.1877.03778 2.6289.40025 9.84027.40025 9.84027zM313.76514 138.69035s6.8742-7.75357 6.41559-11.60009c-.45858-3.84653-.8731-5.73008-2.3033-7.42787-1.43017-1.69778-4.55019 6.55875-4.51254 9.1877.03778 2.6289.40025 9.84026.40025 9.84026z" fill="#e08245"/></g></svg>